<?xml version="1.0" encoding="UTF-8"?>
<svg id="Layer_1" data-name="Layer 1" xmlns="http://www.w3.org/2000/svg" viewBox="0 0 728.13 71.59">
  <defs>
    <style>
      .cls-1 {
        fill: #fff;
      }

      .cls-2 {
        fill: #cfb87c;
      }

      .cls-3 {
        fill: #231f20;
      }
    </style>
  </defs>
  <g>
    <path class="cls-3" d="M93.07,57.57h.95v6.19c-.01,2.33,1.09,3.21,2.93,3.21s2.96-.88,2.94-3.21v-6.19h.95v6.4c0,2.06-1.11,3.81-3.89,3.81s-3.88-1.75-3.88-3.81v-6.4Z"/>
    <path class="cls-3" d="M103.08,57.57h1.06l5.83,8.46h.03v-8.46h.95v10h-1.06l-5.83-8.46h-.03v8.46h-.95v-10Z"/>
    <path class="cls-3" d="M113.36,57.57h.95v10h-.95v-10Z"/>
    <path class="cls-3" d="M115.64,57.57h1.02l3.25,8.95h.03l3.22-8.95h1.01l-3.71,10h-1.11l-3.71-10Z"/>
    <path class="cls-3" d="M125.4,57.57h6.91v.81h-5.95v3.61h5.58v.81h-5.58v3.95h6.02v.81h-6.98v-10Z"/>
    <path class="cls-3" d="M134.05,57.57h4.58c1.65,0,3.04,.8,3.04,2.6,0,1.26-.66,2.3-1.95,2.55v.03c1.3,.17,1.68,1.06,1.75,2.25,.04,.69,.04,2.06,.46,2.56h-1.05c-.24-.39-.24-1.13-.27-1.55-.08-1.4-.2-2.96-2-2.89h-3.61v4.44h-.95v-10Zm.95,4.75h3.56c1.16,0,2.16-.73,2.16-1.95s-.73-1.99-2.16-1.99h-3.56v3.94Z"/>
    <path class="cls-3" d="M144.18,64.28c-.04,2.06,1.44,2.69,3.26,2.69,1.05,0,2.65-.57,2.65-2.03,0-1.13-1.13-1.58-2.06-1.81l-2.23-.55c-1.18-.29-2.25-.85-2.25-2.41,0-.98,.63-2.82,3.45-2.82,1.98,0,3.71,1.07,3.7,3.11h-.95c-.06-1.53-1.32-2.3-2.73-2.3-1.3,0-2.51,.5-2.51,1.99,0,.94,.7,1.33,1.51,1.53l2.44,.6c1.41,.38,2.59,1,2.59,2.63,0,.69-.28,2.86-3.82,2.86-2.37,0-4.1-1.06-3.99-3.5h.95Z"/>
    <path class="cls-3" d="M152.98,57.57h.95v10h-.95v-10Z"/>
    <path class="cls-3" d="M155.28,57.57h7.93v.81h-3.49v9.19h-.95v-9.19h-3.49v-.81Z"/>
    <path class="cls-3" d="M168.26,63.45l-3.94-5.88h1.13l3.29,5.07,3.28-5.07h1.13l-3.95,5.88v4.12h-.95v-4.12Z"/>
    <path class="cls-3" d="M182.8,57.36c3.14,0,4.71,2.48,4.71,5.21s-1.57,5.21-4.71,5.21-4.72-2.48-4.72-5.21,1.57-5.21,4.72-5.21Zm0,9.61c2.63,0,3.75-2.21,3.75-4.4s-1.12-4.4-3.75-4.4-3.77,2.21-3.77,4.4,1.12,4.4,3.77,4.4Z"/>
    <path class="cls-3" d="M189.33,57.57h6.35v.81h-5.39v3.61h4.79v.81h-4.79v4.76h-.95v-10Z"/>
    <path class="cls-3" d="M208.75,60.59c-.34-1.54-1.61-2.42-3.07-2.42-2.65,0-3.77,2.21-3.77,4.4s1.12,4.4,3.77,4.4c1.85,0,3.03-1.43,3.21-3.21h.95c-.27,2.45-1.82,4.02-4.16,4.02-3.15,0-4.72-2.48-4.72-5.21s1.57-5.21,4.72-5.21c1.89,0,3.77,1.13,4.02,3.24h-.95Z"/>
    <path class="cls-3" d="M215.84,57.36c3.14,0,4.71,2.48,4.71,5.21s-1.57,5.21-4.71,5.21-4.72-2.48-4.72-5.21,1.57-5.21,4.72-5.21Zm0,9.61c2.63,0,3.75-2.21,3.75-4.4s-1.12-4.4-3.75-4.4-3.77,2.21-3.77,4.4,1.12,4.4,3.77,4.4Z"/>
  </g>
  <path class="cls-3" d="M222.42,57.57h.95v9.19h5.6v.81h-6.55v-10Z"/>
  <g>
    <path class="cls-3" d="M234.47,57.36c3.14,0,4.71,2.48,4.71,5.21s-1.57,5.21-4.71,5.21-4.72-2.48-4.72-5.21,1.57-5.21,4.72-5.21Zm0,9.61c2.63,0,3.75-2.21,3.75-4.4s-1.12-4.4-3.75-4.4-3.77,2.21-3.77,4.4,1.12,4.4,3.77,4.4Z"/>
    <path class="cls-3" d="M241.01,57.57h4.58c1.65,0,3.04,.8,3.04,2.6,0,1.26-.66,2.3-1.95,2.55v.03c1.3,.17,1.68,1.06,1.75,2.25,.04,.69,.04,2.06,.46,2.56h-1.05c-.24-.39-.24-1.13-.27-1.55-.08-1.4-.2-2.96-2-2.89h-3.61v4.44h-.95v-10Zm.95,4.75h3.56c1.16,0,2.16-.73,2.16-1.95s-.73-1.99-2.16-1.99h-3.56v3.94Z"/>
    <path class="cls-3" d="M253.62,57.57h1.06l3.92,10h-1.02l-1.22-3.11h-4.55l-1.2,3.11h-1.02l4.04-10Zm-1.51,6.08h3.94l-1.93-5.13-2,5.13Z"/>
    <path class="cls-3" d="M259.87,57.57h3.46c3.01,.07,4.6,1.72,4.6,5s-1.58,4.93-4.6,5h-3.46v-10Zm.95,9.19h2.03c2.87,.01,4.12-1.21,4.12-4.19s-1.25-4.2-4.12-4.19h-2.03v8.38Z"/>
    <path class="cls-3" d="M273.99,57.36c3.14,0,4.71,2.48,4.71,5.21s-1.57,5.21-4.71,5.21-4.72-2.48-4.72-5.21,1.57-5.21,4.72-5.21Zm0,9.61c2.63,0,3.75-2.21,3.75-4.4s-1.12-4.4-3.75-4.4-3.77,2.21-3.77,4.4,1.12,4.4,3.77,4.4Z"/>
  </g>
  <g>
    <path class="cls-3" d="M284.73,57.57h4.71c1.91,0,3.19,.62,3.19,2.48,0,.98-.49,1.67-1.36,2.09,1.22,.35,1.83,1.29,1.83,2.54,0,2.03-1.72,2.9-3.53,2.9h-4.85v-10Zm2.2,4.05h2.23c.77,0,1.34-.35,1.34-1.19,0-.95-.73-1.15-1.51-1.15h-2.06v2.34Zm0,4.24h2.35c.87,0,1.62-.28,1.62-1.32s-.64-1.43-1.58-1.43h-2.39v2.75Z"/>
    <path class="cls-3" d="M299.42,57.33c3.1,0,4.92,2.31,4.92,5.28s-1.82,5.2-4.92,5.2-4.92-2.31-4.92-5.2,1.82-5.28,4.92-5.28Zm0,8.63c1.97,0,2.72-1.68,2.72-3.35,0-1.75-.74-3.43-2.72-3.43s-2.72,1.68-2.72,3.43,.74,3.35,2.72,3.35Z"/>
    <path class="cls-3" d="M314.67,63.79c0,2.7-1.6,4.02-4.27,4.02s-4.26-1.3-4.26-4.02v-6.22h2.2v6.22c0,1.09,.28,2.17,2.06,2.17,1.57,0,2.07-.69,2.07-2.17v-6.22h2.2v6.22Z"/>
    <path class="cls-3" d="M316.89,57.57h2.2v8.15h4.87v1.85h-7.07v-10Z"/>
    <path class="cls-3" d="M325.54,57.57h4.31c2.59,0,4.54,1.62,4.54,4.94,0,2.9-1.48,5.06-4.54,5.06h-4.31v-10Zm2.2,8.15h1.96c1.27,0,2.49-.79,2.49-3,0-2.02-.7-3.31-2.89-3.31h-1.57v6.3Z"/>
    <path class="cls-3" d="M336.26,57.57h7.48v1.85h-5.28v2.14h4.85v1.71h-4.85v2.45h5.39v1.85h-7.59v-10Z"/>
    <path class="cls-3" d="M345.69,57.57h5.39c1.79,0,2.93,1.25,2.93,2.76,0,1.18-.48,2.06-1.58,2.51v.03c1.08,.28,1.39,1.33,1.46,2.34,.04,.63,.03,1.81,.42,2.37h-2.2c-.27-.63-.24-1.6-.35-2.4-.15-1.05-.56-1.51-1.67-1.51h-2.2v3.91h-2.2v-10Zm2.2,4.52h2.41c.98,0,1.51-.42,1.51-1.43s-.53-1.39-1.51-1.39h-2.41v2.82Z"/>
  </g>
  <polygon class="cls-2" points="9.83 0 0 9.82 0 43.71 9.83 53.52 20.61 53.52 20.61 61.77 30.52 71.59 59.17 71.59 69.1 61.77 69.1 35.52 74.16 35.52 74.16 18.04 53.58 18.04 53.58 9.82 43.78 0 9.83 0"/>
  <polygon class="cls-3" points="43.36 1.02 52.56 10.24 52.56 19.06 73.14 19.06 73.14 34.51 68.08 34.51 68.08 61.35 58.75 70.57 30.94 70.57 21.63 61.35 21.63 52.5 10.25 52.5 1.02 43.28 1.02 10.24 10.25 1.02 43.36 1.02"/>
  <polygon class="cls-1" points="11.3 49.95 24.18 49.95 24.18 60.28 31.98 68.02 57.71 68.02 65.54 60.28 65.54 31.96 70.6 31.96 70.6 21.61 55.07 21.61 55.07 57.68 34.52 57.68 34.52 49.95 42.3 49.95 50.02 42.23 50.02 31.96 39.67 31.96 39.67 39.63 34.52 39.63 34.52 21.61 19.04 21.61 19.04 31.96 24.18 31.96 24.18 39.63 13.89 39.63 13.89 13.81 39.67 13.81 39.67 21.61 50.02 21.61 50.02 11.3 42.3 3.56 11.3 3.56 3.56 11.29 3.56 42.23 11.3 49.95"/>
  <polygon class="cls-2" points="33.25 48.68 41.77 48.68 48.74 41.7 48.74 33.23 40.94 33.23 40.94 40.9 33.25 40.9 33.25 22.88 20.32 22.88 20.32 30.69 25.45 30.69 25.45 40.9 12.62 40.9 12.62 12.54 40.94 12.54 40.94 20.33 48.74 20.33 48.74 11.82 41.77 4.84 11.83 4.84 4.84 11.82 4.84 41.7 11.83 48.68 25.45 48.68 25.45 59.75 32.51 66.75 57.18 66.75 64.26 59.75 64.26 30.69 69.32 30.69 69.32 22.88 56.34 22.88 56.34 58.95 33.25 58.95 33.25 48.68"/>
  <g>
    <path class="cls-3" d="M110,24.81c-.77-3.51-3.67-5.51-6.98-5.51-6.02,0-8.57,5.04-8.57,10.01s2.55,10.01,8.57,10.01c4.21,0,6.89-3.25,7.3-7.3h2.17c-.61,5.58-4.14,9.15-9.47,9.15-7.17,0-10.74-5.64-10.74-11.86s3.57-11.86,10.74-11.86c4.3,0,8.57,2.58,9.15,7.36h-2.17Z"/>
    <path class="cls-3" d="M116.6,33c.03,2.93,1.56,6.47,5.42,6.47,2.93,0,4.53-1.72,5.16-4.21h2.01c-.86,3.73-3.03,5.9-7.17,5.9-5.23,0-7.43-4.02-7.43-8.7,0-4.33,2.2-8.7,7.43-8.7s7.4,4.62,7.24,9.24h-12.65Zm10.65-1.69c-.1-3.03-1.98-5.86-5.23-5.86s-5.1,2.87-5.42,5.86h10.65Z"/>
    <path class="cls-3" d="M131.93,24.24h2.01v2.84h.06c.73-1.98,2.93-3.31,5.26-3.31,4.62,0,6.02,2.42,6.02,6.34v10.58h-2.01v-10.26c0-2.84-.92-4.97-4.18-4.97s-5.1,2.42-5.16,5.64v9.59h-2.01V24.24Z"/>
    <path class="cls-3" d="M152.27,24.24h3.35v1.69h-3.35v11.09c0,1.31,.19,2.07,1.63,2.17,.57,0,1.15-.03,1.72-.1v1.72c-.61,0-1.18,.06-1.79,.06-2.68,0-3.6-.89-3.57-3.7v-11.25h-2.87v-1.69h2.87v-4.94h2.01v4.94Z"/>
    <path class="cls-3" d="M159.69,33c.03,2.93,1.56,6.47,5.42,6.47,2.93,0,4.53-1.72,5.16-4.21h2.01c-.86,3.73-3.03,5.9-7.17,5.9-5.23,0-7.43-4.02-7.43-8.7,0-4.33,2.2-8.7,7.43-8.7s7.4,4.62,7.24,9.24h-12.65Zm10.65-1.69c-.1-3.03-1.98-5.86-5.23-5.86s-5.1,2.87-5.42,5.86h10.65Z"/>
    <path class="cls-3" d="M175.06,24.24h1.85v3.86h.06c1.02-2.65,3.25-4.21,6.22-4.08v2.01c-3.63-.19-6.12,2.49-6.12,5.9v8.77h-2.01V24.24Z"/>
    <path class="cls-3" d="M200.3,25.93h-3.25v14.76h-2.01v-14.76h-2.8v-1.69h2.8v-1.5c-.03-2.84,.77-4.81,3.98-4.81,.57,0,1.05,.03,1.69,.13v1.72c-.54-.1-.99-.16-1.47-.16-2.23,0-2.17,1.4-2.2,3.19v1.43h3.25v1.69Z"/>
    <path class="cls-3" d="M216.94,32.46c0,4.72-2.74,8.7-7.78,8.7s-7.78-3.98-7.78-8.7,2.74-8.7,7.78-8.7,7.78,3.98,7.78,8.7Zm-13.55,0c0,3.51,1.91,7.01,5.77,7.01s5.77-3.51,5.77-7.01-1.91-7.01-5.77-7.01-5.77,3.51-5.77,7.01Z"/>
    <path class="cls-3" d="M219.93,24.24h1.85v3.86h.06c1.02-2.65,3.25-4.21,6.22-4.08v2.01c-3.63-.19-6.12,2.49-6.12,5.9v8.77h-2.01V24.24Z"/>
    <path class="cls-3" d="M239.22,17.93h10.42c3.76,0,6.92,1.82,6.92,5.93,0,2.87-1.5,5.23-4.43,5.8v.06c2.96,.38,3.82,2.42,3.98,5.13,.1,1.56,.1,4.69,1.05,5.83h-2.39c-.54-.89-.54-2.58-.61-3.54-.19-3.19-.45-6.73-4.56-6.57h-8.22v10.1h-2.17V17.93Zm2.17,10.81h8.1c2.65,0,4.91-1.66,4.91-4.43s-1.66-4.53-4.91-4.53h-8.1v8.96Z"/>
    <path class="cls-3" d="M261.27,33c.03,2.93,1.56,6.47,5.42,6.47,2.93,0,4.53-1.72,5.16-4.21h2.01c-.86,3.73-3.03,5.9-7.17,5.9-5.23,0-7.43-4.02-7.43-8.7,0-4.33,2.2-8.7,7.43-8.7s7.4,4.62,7.24,9.24h-12.65Zm10.65-1.69c-.1-3.03-1.98-5.86-5.23-5.86s-5.1,2.87-5.42,5.86h10.65Z"/>
    <path class="cls-3" d="M286.49,29.05c-.1-2.49-2.01-3.6-4.3-3.6-1.79,0-3.89,.7-3.89,2.84,0,1.78,2.04,2.42,3.41,2.77l2.68,.61c2.29,.35,4.69,1.69,4.69,4.56,0,3.57-3.54,4.94-6.6,4.94-3.83,0-6.44-1.79-6.76-5.8h2.01c.16,2.71,2.17,4.11,4.85,4.11,1.88,0,4.49-.83,4.49-3.12,0-1.91-1.79-2.55-3.6-3l-2.58-.57c-2.61-.7-4.59-1.59-4.59-4.4,0-3.35,3.28-4.62,6.18-4.62,3.28,0,5.9,1.72,6.02,5.29h-2.01Z"/>
    <path class="cls-3" d="M293.15,33c.03,2.93,1.56,6.47,5.42,6.47,2.93,0,4.53-1.72,5.16-4.21h2.01c-.86,3.73-3.03,5.9-7.17,5.9-5.23,0-7.43-4.02-7.43-8.7,0-4.33,2.2-8.7,7.43-8.7s7.4,4.62,7.24,9.24h-12.65Zm10.65-1.69c-.1-3.03-1.98-5.86-5.23-5.86s-5.1,2.87-5.42,5.86h10.65Z"/>
    <path class="cls-3" d="M308.32,29.28c.19-3.86,2.9-5.51,6.66-5.51,2.9,0,6.06,.89,6.06,5.29v8.73c0,.76,.38,1.21,1.18,1.21,.22,0,.48-.06,.64-.13v1.69c-.45,.1-.77,.13-1.31,.13-2.04,0-2.36-1.15-2.36-2.87h-.06c-1.4,2.14-2.84,3.35-5.99,3.35s-5.51-1.5-5.51-4.81c0-4.62,4.5-4.78,8.83-5.29,1.66-.19,2.58-.41,2.58-2.23,0-2.71-1.94-3.38-4.3-3.38-2.49,0-4.33,1.15-4.4,3.82h-2.01Zm10.71,2.42h-.06c-.26,.48-1.15,.64-1.69,.73-3.41,.61-7.65,.57-7.65,3.79,0,2.01,1.79,3.25,3.67,3.25,3.06,0,5.77-1.94,5.74-5.16v-2.61Z"/>
    <path class="cls-3" d="M325.05,24.24h1.85v3.86h.06c1.02-2.65,3.25-4.21,6.22-4.08v2.01c-3.63-.19-6.12,2.49-6.12,5.9v8.77h-2.01V24.24Z"/>
    <path class="cls-3" d="M346.12,29.4c-.54-2.45-2.04-3.95-4.65-3.95-3.86,0-5.77,3.51-5.77,7.01s1.91,7.01,5.77,7.01c2.49,0,4.53-1.94,4.78-4.69h2.01c-.54,3.95-3.12,6.38-6.79,6.38-5.04,0-7.78-3.98-7.78-8.7s2.74-8.7,7.78-8.7c3.51,0,6.22,1.88,6.66,5.64h-2.01Z"/>
    <path class="cls-3" d="M351.03,17.93h2.01v9.15h.06c.73-1.98,2.93-3.31,5.26-3.31,4.62,0,6.02,2.42,6.02,6.34v10.58h-2.01v-10.26c0-2.84-.92-4.97-4.18-4.97s-5.1,2.42-5.16,5.64v9.59h-2.01V17.93Z"/>
    <path class="cls-3" d="M377.42,17.93h7.87c6.85,.16,10.46,3.92,10.46,11.38s-3.6,11.22-10.46,11.38h-7.87V17.93Zm2.17,20.91h4.62c6.53,.03,9.37-2.74,9.37-9.53s-2.84-9.56-9.37-9.53h-4.62v19.06Z"/>
    <path class="cls-3" d="M398.68,29.28c.19-3.86,2.9-5.51,6.66-5.51,2.9,0,6.06,.89,6.06,5.29v8.73c0,.76,.38,1.21,1.18,1.21,.22,0,.48-.06,.64-.13v1.69c-.45,.1-.77,.13-1.31,.13-2.04,0-2.36-1.15-2.36-2.87h-.06c-1.4,2.14-2.84,3.35-5.99,3.35s-5.51-1.5-5.51-4.81c0-4.62,4.5-4.78,8.83-5.29,1.66-.19,2.58-.41,2.58-2.23,0-2.71-1.94-3.38-4.3-3.38-2.49,0-4.33,1.15-4.4,3.82h-2.01Zm10.71,2.42h-.06c-.26,.48-1.15,.64-1.69,.73-3.41,.61-7.65,.57-7.65,3.79,0,2.01,1.79,3.25,3.67,3.25,3.06,0,5.77-1.94,5.74-5.16v-2.61Z"/>
    <path class="cls-3" d="M418.61,24.24h3.35v1.69h-3.35v11.09c0,1.31,.19,2.07,1.63,2.17,.57,0,1.15-.03,1.72-.1v1.72c-.61,0-1.18,.06-1.79,.06-2.68,0-3.6-.89-3.57-3.7v-11.25h-2.87v-1.69h2.87v-4.94h2.01v4.94Z"/>
    <path class="cls-3" d="M424.66,29.28c.19-3.86,2.9-5.51,6.66-5.51,2.9,0,6.06,.89,6.06,5.29v8.73c0,.76,.38,1.21,1.18,1.21,.22,0,.48-.06,.64-.13v1.69c-.45,.1-.77,.13-1.31,.13-2.04,0-2.36-1.15-2.36-2.87h-.06c-1.4,2.14-2.84,3.35-5.99,3.35s-5.51-1.5-5.51-4.81c0-4.62,4.49-4.78,8.83-5.29,1.66-.19,2.58-.41,2.58-2.23,0-2.71-1.94-3.38-4.3-3.38-2.49,0-4.33,1.15-4.4,3.82h-2.01Zm10.71,2.42h-.06c-.26,.48-1.15,.64-1.69,.73-3.41,.61-7.65,.57-7.65,3.79,0,2.01,1.79,3.25,3.67,3.25,3.06,0,5.77-1.94,5.74-5.16v-2.61Z"/>
    <path class="cls-3" d="M463.17,37.72c-1.66,2.07-4.02,3.44-6.69,3.44-3.92,0-6.88-2.26-6.88-6.38,0-3.25,3.03-5.39,5.58-6.76-1.24-1.63-2.8-3.28-2.8-5.48,0-2.77,2.26-4.62,5.04-4.62s5.04,1.85,5.04,4.62-2.2,4.46-4.46,5.9l4.97,5.99c.54-1.12,.67-2.1,.67-3.83h2.01c0,1.27-.29,3.51-1.34,5.45l3.83,4.62h-2.52l-2.42-2.96Zm-6.92-8.38c-2.17,1.18-4.65,2.9-4.65,5.64s2.36,4.49,4.94,4.49c2.26,0,4.11-1.43,5.39-3.25l-5.67-6.88Zm-1.88-6.79c0,1.59,1.56,3.38,2.55,4.59,1.59-.99,3.51-2.39,3.51-4.59,0-1.88-1.37-2.93-3.03-2.93s-3.03,1.05-3.03,2.93Z"/>
    <path class="cls-3" d="M478.97,17.93h7.87c6.85,.16,10.46,3.92,10.46,11.38s-3.6,11.22-10.46,11.38h-7.87V17.93Zm2.17,20.91h4.62c6.53,.03,9.37-2.74,9.37-9.53s-2.84-9.56-9.37-9.53h-4.62v19.06Z"/>
    <path class="cls-3" d="M500.46,17.93h2.01v3.22h-2.01v-3.22Zm0,6.31h2.01v16.45h-2.01V24.24Z"/>
    <path class="cls-3" d="M520.22,39.35c-.03,4.91-1.91,7.91-7.3,7.91-3.28,0-6.53-1.47-6.82-4.97h2.01c.45,2.42,2.58,3.28,4.81,3.28,3.7,0,5.29-2.2,5.29-6.22v-2.23h-.06c-.92,2.01-2.87,3.38-5.23,3.38-5.26,0-7.43-3.76-7.43-8.45s2.68-8.29,7.43-8.29c2.39,0,4.43,1.5,5.23,3.31h.06v-2.84h2.01v15.11Zm-2.01-7.08c0-3.22-1.5-6.82-5.29-6.82s-5.42,3.41-5.42,6.82,1.72,6.53,5.42,6.53c3.47,0,5.29-3.19,5.29-6.53Z"/>
    <path class="cls-3" d="M524.08,17.93h2.01v3.22h-2.01v-3.22Zm0,6.31h2.01v16.45h-2.01V24.24Z"/>
    <path class="cls-3" d="M533.13,24.24h3.35v1.69h-3.35v11.09c0,1.31,.19,2.07,1.63,2.17,.57,0,1.15-.03,1.72-.1v1.72c-.61,0-1.18,.06-1.79,.06-2.68,0-3.6-.89-3.57-3.7v-11.25h-2.87v-1.69h2.87v-4.94h2.01v4.94Z"/>
    <path class="cls-3" d="M539.19,29.28c.19-3.86,2.9-5.51,6.66-5.51,2.9,0,6.06,.89,6.06,5.29v8.73c0,.76,.38,1.21,1.18,1.21,.22,0,.48-.06,.64-.13v1.69c-.45,.1-.77,.13-1.31,.13-2.04,0-2.36-1.15-2.36-2.87h-.06c-1.4,2.14-2.84,3.35-5.99,3.35s-5.51-1.5-5.51-4.81c0-4.62,4.49-4.78,8.83-5.29,1.66-.19,2.58-.41,2.58-2.23,0-2.71-1.94-3.38-4.3-3.38-2.49,0-4.33,1.15-4.4,3.82h-2.01Zm10.71,2.42h-.06c-.26,.48-1.15,.64-1.69,.73-3.41,.61-7.65,.57-7.65,3.79,0,2.01,1.79,3.25,3.67,3.25,3.06,0,5.77-1.94,5.74-5.16v-2.61Z"/>
    <path class="cls-3" d="M555.95,17.93h2.01v22.76h-2.01V17.93Z"/>
    <path class="cls-3" d="M572.08,33.2c-.1,4.69,3.28,6.12,7.43,6.12,2.39,0,6.02-1.31,6.02-4.62,0-2.58-2.58-3.6-4.69-4.11l-5.07-1.24c-2.68-.67-5.13-1.94-5.13-5.48,0-2.23,1.43-6.41,7.84-6.41,4.5,0,8.45,2.42,8.42,7.08h-2.17c-.13-3.47-3-5.23-6.22-5.23-2.96,0-5.71,1.15-5.71,4.53,0,2.14,1.59,3.03,3.44,3.47l5.55,1.37c3.22,.86,5.9,2.26,5.9,5.99,0,1.56-.64,6.5-8.7,6.5-5.39,0-9.34-2.42-9.08-7.97h2.17Z"/>
    <path class="cls-3" d="M602.36,29.4c-.54-2.45-2.04-3.95-4.65-3.95-3.86,0-5.77,3.51-5.77,7.01s1.91,7.01,5.77,7.01c2.49,0,4.53-1.94,4.78-4.69h2.01c-.54,3.95-3.12,6.38-6.79,6.38-5.04,0-7.78-3.98-7.78-8.7s2.74-8.7,7.78-8.7c3.51,0,6.22,1.88,6.66,5.64h-2.01Z"/>
    <path class="cls-3" d="M607.27,17.93h2.01v9.15h.06c.73-1.98,2.93-3.31,5.26-3.31,4.62,0,6.02,2.42,6.02,6.34v10.58h-2.01v-10.26c0-2.84-.92-4.97-4.18-4.97s-5.1,2.42-5.16,5.64v9.59h-2.01V17.93Z"/>
    <path class="cls-3" d="M639.14,32.46c0,4.72-2.74,8.7-7.78,8.7s-7.78-3.98-7.78-8.7,2.74-8.7,7.78-8.7,7.78,3.98,7.78,8.7Zm-13.55,0c0,3.51,1.91,7.01,5.77,7.01s5.77-3.51,5.77-7.01-1.91-7.01-5.77-7.01-5.77,3.51-5.77,7.01Z"/>
    <path class="cls-3" d="M642.17,17.93h2.01v22.76h-2.01V17.93Z"/>
    <path class="cls-3" d="M647.84,29.28c.19-3.86,2.9-5.51,6.66-5.51,2.9,0,6.06,.89,6.06,5.29v8.73c0,.76,.38,1.21,1.18,1.21,.22,0,.48-.06,.64-.13v1.69c-.45,.1-.77,.13-1.31,.13-2.04,0-2.36-1.15-2.36-2.87h-.06c-1.4,2.14-2.84,3.35-5.99,3.35s-5.51-1.5-5.51-4.81c0-4.62,4.49-4.78,8.83-5.29,1.66-.19,2.58-.41,2.58-2.23,0-2.71-1.94-3.38-4.3-3.38-2.49,0-4.33,1.15-4.4,3.82h-2.01Zm10.71,2.42h-.06c-.26,.48-1.15,.64-1.69,.73-3.41,.61-7.65,.57-7.65,3.79,0,2.01,1.79,3.25,3.67,3.25,3.06,0,5.77-1.94,5.74-5.16v-2.61Z"/>
    <path class="cls-3" d="M664.58,24.24h1.85v3.86h.06c1.02-2.65,3.25-4.21,6.22-4.08v2.01c-3.63-.19-6.12,2.49-6.12,5.9v8.77h-2.01V24.24Z"/>
    <path class="cls-3" d="M684.47,29.05c-.1-2.49-2.01-3.6-4.3-3.6-1.79,0-3.89,.7-3.89,2.84,0,1.78,2.04,2.42,3.41,2.77l2.68,.61c2.29,.35,4.69,1.69,4.69,4.56,0,3.57-3.54,4.94-6.6,4.94-3.83,0-6.44-1.79-6.76-5.8h2.01c.16,2.71,2.17,4.11,4.85,4.11,1.88,0,4.49-.83,4.49-3.12,0-1.91-1.79-2.55-3.6-3l-2.58-.57c-2.61-.7-4.59-1.59-4.59-4.4,0-3.35,3.28-4.62,6.18-4.62,3.28,0,5.9,1.72,6.02,5.29h-2.01Z"/>
    <path class="cls-3" d="M689.92,17.93h2.01v9.15h.06c.73-1.98,2.93-3.31,5.26-3.31,4.62,0,6.02,2.42,6.02,6.34v10.58h-2.01v-10.26c0-2.84-.92-4.97-4.18-4.97s-5.1,2.42-5.16,5.64v9.59h-2.01V17.93Z"/>
    <path class="cls-3" d="M707.1,17.93h2.01v3.22h-2.01v-3.22Zm0,6.31h2.01v16.45h-2.01V24.24Z"/>
    <path class="cls-3" d="M712.96,24.24h1.85v3.12h.06c.92-2.23,3.22-3.6,5.87-3.6,5,0,7.39,4.05,7.39,8.7s-2.39,8.7-7.39,8.7c-2.46,0-4.85-1.24-5.71-3.6h-.06v9.21h-2.01V24.24Zm7.78,1.21c-4.43,0-5.77,3.28-5.77,7.01,0,3.41,1.5,7.01,5.77,7.01,3.83,0,5.39-3.6,5.39-7.01s-1.56-7.01-5.39-7.01Z"/>
  </g>
</svg>